<svg id="Layer_1" xmlns="http://www.w3.org/2000/svg" viewBox="0 0 80.227 80.227" xmlns:xlink="http://www.w3.org/1999/xlink" width="80.227" height="80.227"><defs><style>.cls-1{fill:#7bf1a8;}</style></defs><path class="cls-1" d="M40.088 0C18.177 0 0.342 17.833 0.332 39.751c-0.002 7.006 1.829 13.845 5.308 19.873L0 80.227l21.075 -5.528c5.807 3.167 12.344 4.836 18.997 4.838h0.016c21.909 0 39.744 -17.835 39.754 -39.754 0.005 -10.622 -4.127 -20.61 -11.633 -28.123C60.703 4.146 50.722 0.005 40.088 0m0 72.824h-0.014c-5.928 0 -11.745 -1.596 -16.817 -4.606l-1.206 -0.716 -12.504 3.281 3.337 -12.193 -0.785 -1.25c-3.307 -5.261 -5.054 -11.343 -5.052 -17.584 0.007 -18.219 14.831 -33.04 33.056 -33.04 8.826 0.002 17.122 3.444 23.359 9.69 6.239 6.244 9.672 14.547 9.669 23.375 -0.007 18.219 -14.831 33.042 -33.042 33.042m18.123 -24.746c-0.992 -0.497 -5.877 -2.9 -6.788 -3.232s-1.573 -0.497 -2.236 0.497 -2.565 3.232 -3.144 3.895c-0.579 0.665 -1.16 0.746 -2.152 0.249s-4.194 -1.548 -7.987 -4.931c-2.954 -2.633 -4.947 -5.886 -5.526 -6.881s-0.063 -1.531 0.437 -2.026c0.446 -0.444 0.992 -1.16 1.49 -1.741s0.662 -0.995 0.992 -1.659c0.33 -0.662 0.165 -1.243 -0.084 -1.741s-2.236 -5.387 -3.063 -7.376c-0.806 -1.936 -1.624 -1.675 -2.236 -1.706 -0.579 -0.03 -1.241 -0.035 -1.903 -0.035s-1.738 0.249 -2.649 1.243 -3.476 3.397 -3.476 8.287 3.56 9.614 4.055 10.276c0.497 0.662 7.004 10.697 16.969 14.998 2.37 1.022 4.22 1.634 5.663 2.091 2.38 0.755 4.545 0.648 6.256 0.393 1.908 -0.286 5.877 -2.403 6.704 -4.724 0.827 -2.319 0.827 -4.308 0.579 -4.724"/></svg>
